<?xml version="1.0" encoding="UTF-8" standalone="no"?>
<!DOCTYPE svg PUBLIC "-//W3C//DTD SVG 1.1//EN"
 "http://www.w3.org/Graphics/SVG/1.1/DTD/svg11.dtd">
<!-- Generated by graphviz version 2.43.0 (0)
 -->
<!-- Title: G Pages: 1 -->
<svg width="216pt" height="421pt"
 viewBox="0.00 0.00 216.00 421.39" xmlns="http://www.w3.org/2000/svg" xmlns:xlink="http://www.w3.org/1999/xlink">
<g id="graph0" class="graph" transform="scale(0.96 0.96) rotate(0) translate(4 436)">
<title>G</title>
<polygon fill="white" stroke="transparent" points="-4,4 -4,-436 221.54,-436 221.54,4 -4,4"/>
<!-- raw -->
<g id="node1" class="node">
<title>raw</title>
<ellipse fill="none" stroke="black" cx="108.77" cy="-24" rx="28.7" ry="18"/>
<text text-anchor="middle" x="108.77" y="-20.3" font-family="Times,serif" font-size="14.00">raw</text>
</g>
<!-- source -->
<g id="node2" class="node">
<title>source</title>
<ellipse fill="none" stroke="black" cx="108.77" cy="-120" rx="41.69" ry="18"/>
<text text-anchor="middle" x="108.77" y="-116.3" font-family="Times,serif" font-size="14.00">source</text>
</g>
<!-- raw&#45;&gt;source -->
<g id="edge1" class="edge">
<title>raw&#45;&gt;source</title>
<path fill="none" stroke="black" d="M108.77,-42.24C108.77,-56.02 108.77,-75.6 108.77,-91.53"/>
<polygon fill="black" stroke="black" points="105.27,-91.87 108.77,-101.87 112.27,-91.87 105.27,-91.87"/>
</g>
<!-- semantic -->
<g id="node3" class="node">
<title>semantic</title>
<ellipse fill="none" stroke="black" cx="108.77" cy="-216" rx="52.79" ry="18"/>
<text text-anchor="middle" x="108.77" y="-212.3" font-family="Times,serif" font-size="14.00">semantic</text>
</g>
<!-- source&#45;&gt;semantic -->
<g id="edge2" class="edge">
<title>source&#45;&gt;semantic</title>
<path fill="none" stroke="black" d="M108.77,-138.24C108.77,-152.02 108.77,-171.6 108.77,-187.53"/>
<polygon fill="black" stroke="black" points="105.27,-187.87 108.77,-197.87 112.27,-187.87 105.27,-187.87"/>
</g>
<!-- analytical -->
<g id="node4" class="node">
<title>analytical</title>
<ellipse fill="none" stroke="black" cx="108.77" cy="-312" rx="55.79" ry="18"/>
<text text-anchor="middle" x="108.77" y="-308.3" font-family="Times,serif" font-size="14.00">analytical</text>
</g>
<!-- semantic&#45;&gt;analytical -->
<g id="edge3" class="edge">
<title>semantic&#45;&gt;analytical</title>
<path fill="none" stroke="black" d="M108.77,-234.24C108.77,-248.02 108.77,-267.6 108.77,-283.53"/>
<polygon fill="black" stroke="black" points="105.27,-283.87 108.77,-293.87 112.27,-283.87 105.27,-283.87"/>
</g>
<!-- deploy -->
<g id="node5" class="node">
<title>deploy</title>
<ellipse fill="none" stroke="black" cx="108.77" cy="-408" rx="41.69" ry="18"/>
<text text-anchor="middle" x="108.77" y="-404.3" font-family="Times,serif" font-size="14.00">deploy</text>
</g>
<!-- analytical&#45;&gt;deploy -->
<g id="edge4" class="edge">
<title>analytical&#45;&gt;deploy</title>
<path fill="none" stroke="black" d="M108.77,-330.24C108.77,-344.02 108.77,-363.6 108.77,-379.53"/>
<polygon fill="black" stroke="black" points="105.27,-379.87 108.77,-389.87 112.27,-379.87 105.27,-379.87"/>
</g>
</g>
</svg>
